<?xml version="1.0" encoding="UTF-8" standalone="no"?>
<!DOCTYPE svg PUBLIC "-//W3C//DTD SVG 1.1//EN"
 "http://www.w3.org/Graphics/SVG/1.1/DTD/svg11.dtd">
<!-- Generated by graphviz version 2.43.0 (0)
 -->
<!-- Title: %3 Pages: 1 -->
<svg width="486pt" height="338pt"
 viewBox="0.00 0.00 485.76 338.08" xmlns="http://www.w3.org/2000/svg" xmlns:xlink="http://www.w3.org/1999/xlink">
<g id="graph0" class="graph" transform="scale(1 1) rotate(0) translate(4 334.08)">
<title>%3</title>
<polygon fill="white" stroke="transparent" points="-4,4 -4,-334.08 481.76,-334.08 481.76,4 -4,4"/>
<!-- mkllsvkmwjodavfgrpzrgvay -->
<g id="node1" class="node">
<title>mkllsvkmwjodavfgrpzrgvay</title>
<polygon fill="#e8f1fb" stroke="#2b587a" stroke-width="3" points="262.87,-294.15 197.16,-330 65.75,-330 0.04,-294.15 65.75,-258.3 197.16,-258.3 262.87,-294.15"/>
<text text-anchor="middle" x="131.46" y="-297.95" font-family="Times,serif" font-size="14.00">Openhole sample</text>
<text text-anchor="middle" x="131.46" y="-282.95" font-family="Times,serif" font-size="14.00">(Glass&#45;epoxy specimen)</text>
</g>
<!-- ndtsuemqoswuvcuysmtvblmk -->
<g id="node2" class="node">
<title>ndtsuemqoswuvcuysmtvblmk</title>
<ellipse fill="white" stroke="lightgreen" stroke-width="4" cx="367.46" cy="-294.15" rx="86.03" ry="31.23"/>
<text text-anchor="middle" x="367.46" y="-297.95" font-family="Times,serif" font-size="14.00">CCD Camera</text>
<text text-anchor="middle" x="367.46" y="-282.95" font-family="Times,serif" font-size="14.00">(Encoding: 8&#45;bit)</text>
</g>
<!-- uckwhuagiizyuhikaqdfppeo -->
<g id="node4" class="node">
<title>uckwhuagiizyuhikaqdfppeo</title>
<polygon fill="lightgrey" stroke="black" stroke-width="2" points="470.46,-222.23 264.46,-222.23 264.46,-178.23 470.46,-178.23 470.46,-222.23"/>
<text text-anchor="middle" x="367.46" y="-204.03" font-family="Times,serif" font-size="14.00">graylevel images</text>
<text text-anchor="middle" x="367.46" y="-189.03" font-family="Times,serif" font-size="14.00">(raw images from CCD camera)</text>
</g>
<!-- ndtsuemqoswuvcuysmtvblmk&#45;&gt;uckwhuagiizyuhikaqdfppeo -->
<g id="edge2" class="edge">
<title>ndtsuemqoswuvcuysmtvblmk&#45;&gt;uckwhuagiizyuhikaqdfppeo</title>
<path fill="none" stroke="black" d="M367.46,-262.8C367.46,-253.04 367.46,-242.22 367.46,-232.41"/>
<polygon fill="black" stroke="black" points="370.96,-232.25 367.46,-222.25 363.96,-232.25 370.96,-232.25"/>
</g>
<!-- tqhvocoqzlgwwlzionhydxvn -->
<g id="node3" class="node">
<title>tqhvocoqzlgwwlzionhydxvn</title>
<ellipse fill="lightblue" stroke="black" stroke-width="2" cx="367.46" cy="-111.11" rx="110.12" ry="31.23"/>
<text text-anchor="middle" x="367.46" y="-114.91" font-family="Times,serif" font-size="14.00">DIC processing (pyxel)</text>
<text text-anchor="middle" x="367.46" y="-99.91" font-family="Times,serif" font-size="14.00">(2D DIC using pyxel)</text>
</g>
<!-- oxaeffiixuicvvdrjwozhold -->
<g id="node5" class="node">
<title>oxaeffiixuicvvdrjwozhold</title>
<polygon fill="#ffa07a" stroke="red" stroke-width="6" points="447.96,-44 286.96,-44 286.96,0 447.96,0 447.96,-44"/>
<text text-anchor="middle" x="367.46" y="-25.8" font-family="Times,serif" font-size="14.00">DIC displacement fields</text>
<text text-anchor="middle" x="367.46" y="-10.8" font-family="Times,serif" font-size="14.00">(ux, uy per frame)</text>
</g>
<!-- tqhvocoqzlgwwlzionhydxvn&#45;&gt;oxaeffiixuicvvdrjwozhold -->
<g id="edge3" class="edge">
<title>tqhvocoqzlgwwlzionhydxvn&#45;&gt;oxaeffiixuicvvdrjwozhold</title>
<path fill="none" stroke="black" d="M367.46,-79.64C367.46,-71.37 367.46,-62.39 367.46,-54.08"/>
<polygon fill="black" stroke="black" points="370.96,-54 367.46,-44 363.96,-54 370.96,-54"/>
</g>
<!-- uckwhuagiizyuhikaqdfppeo&#45;&gt;tqhvocoqzlgwwlzionhydxvn -->
<g id="edge1" class="edge">
<title>uckwhuagiizyuhikaqdfppeo&#45;&gt;tqhvocoqzlgwwlzionhydxvn</title>
<path fill="none" stroke="black" d="M367.46,-178.14C367.46,-170.47 367.46,-161.51 367.46,-152.72"/>
<polygon fill="black" stroke="black" points="370.96,-152.56 367.46,-142.56 363.96,-152.56 370.96,-152.56"/>
</g>
</g>
</svg>
