<?xml version="1.0" encoding="UTF-8" standalone="no"?>
<!DOCTYPE svg PUBLIC "-//W3C//DTD SVG 1.1//EN"
 "http://www.w3.org/Graphics/SVG/1.1/DTD/svg11.dtd">
<!-- Generated by graphviz version 2.43.0 (0)
 -->
<!-- Title: %3 Pages: 1 -->
<svg width="229pt" height="328pt"
 viewBox="0.00 0.00 228.62 328.45" xmlns="http://www.w3.org/2000/svg" xmlns:xlink="http://www.w3.org/1999/xlink">
<g id="graph0" class="graph" transform="scale(1 1) rotate(0) translate(4 324.45)">
<title>%3</title>
<polygon fill="white" stroke="transparent" points="-4,4 -4,-324.45 224.62,-324.45 224.62,4 -4,4"/>
<!-- nzmhmssjshjwrekfwptifcnr -->
<g id="node1" class="node">
<title>nzmhmssjshjwrekfwptifcnr</title>
<ellipse fill="white" stroke="lightgreen" stroke-width="4" cx="110.31" cy="-289.34" rx="86.03" ry="31.23"/>
<text text-anchor="middle" x="110.31" y="-293.14" font-family="Times,serif" font-size="14.00">CCD Camera</text>
<text text-anchor="middle" x="110.31" y="-278.14" font-family="Times,serif" font-size="14.00">(Encoding: 8&#45;bit)</text>
</g>
<!-- igcgknngpwvnfhgpttzgvgmf -->
<g id="node3" class="node">
<title>igcgknngpwvnfhgpttzgvgmf</title>
<polygon fill="lightgrey" stroke="black" stroke-width="2" points="213.31,-222.23 7.31,-222.23 7.31,-178.23 213.31,-178.23 213.31,-222.23"/>
<text text-anchor="middle" x="110.31" y="-204.03" font-family="Times,serif" font-size="14.00">graylevel images</text>
<text text-anchor="middle" x="110.31" y="-189.03" font-family="Times,serif" font-size="14.00">(raw images from CCD camera)</text>
</g>
<!-- nzmhmssjshjwrekfwptifcnr&#45;&gt;igcgknngpwvnfhgpttzgvgmf -->
<g id="edge2" class="edge">
<title>nzmhmssjshjwrekfwptifcnr&#45;&gt;igcgknngpwvnfhgpttzgvgmf</title>
<path fill="none" stroke="black" d="M110.31,-257.87C110.31,-249.59 110.31,-240.62 110.31,-232.3"/>
<polygon fill="black" stroke="black" points="113.81,-232.23 110.31,-222.23 106.81,-232.23 113.81,-232.23"/>
</g>
<!-- bfnwhdylsuhhlgevpcvllvzs -->
<g id="node2" class="node">
<title>bfnwhdylsuhhlgevpcvllvzs</title>
<ellipse fill="lightblue" stroke="black" stroke-width="2" cx="110.31" cy="-111.11" rx="110.12" ry="31.23"/>
<text text-anchor="middle" x="110.31" y="-114.91" font-family="Times,serif" font-size="14.00">DIC processing (pyxel)</text>
<text text-anchor="middle" x="110.31" y="-99.91" font-family="Times,serif" font-size="14.00">(2D DIC using pyxel)</text>
</g>
<!-- tasiosywnfpfwdlscoichgwe -->
<g id="node4" class="node">
<title>tasiosywnfpfwdlscoichgwe</title>
<polygon fill="#ffa07a" stroke="red" stroke-width="6" points="190.81,-44 29.81,-44 29.81,0 190.81,0 190.81,-44"/>
<text text-anchor="middle" x="110.31" y="-25.8" font-family="Times,serif" font-size="14.00">DIC displacement fields</text>
<text text-anchor="middle" x="110.31" y="-10.8" font-family="Times,serif" font-size="14.00">(ux, uy per frame)</text>
</g>
<!-- bfnwhdylsuhhlgevpcvllvzs&#45;&gt;tasiosywnfpfwdlscoichgwe -->
<g id="edge3" class="edge">
<title>bfnwhdylsuhhlgevpcvllvzs&#45;&gt;tasiosywnfpfwdlscoichgwe</title>
<path fill="none" stroke="black" d="M110.31,-79.64C110.31,-71.37 110.31,-62.39 110.31,-54.08"/>
<polygon fill="black" stroke="black" points="113.81,-54 110.31,-44 106.81,-54 113.81,-54"/>
</g>
<!-- igcgknngpwvnfhgpttzgvgmf&#45;&gt;bfnwhdylsuhhlgevpcvllvzs -->
<g id="edge1" class="edge">
<title>igcgknngpwvnfhgpttzgvgmf&#45;&gt;bfnwhdylsuhhlgevpcvllvzs</title>
<path fill="none" stroke="black" d="M110.31,-178.14C110.31,-170.47 110.31,-161.51 110.31,-152.72"/>
<polygon fill="black" stroke="black" points="113.81,-152.56 110.31,-142.56 106.81,-152.56 113.81,-152.56"/>
</g>
</g>
</svg>
