<?xml version="1.0" encoding="UTF-8" standalone="no"?>
<!DOCTYPE svg PUBLIC "-//W3C//DTD SVG 1.1//EN"
 "http://www.w3.org/Graphics/SVG/1.1/DTD/svg11.dtd">
<!-- Generated by graphviz version 2.43.0 (0)
 -->
<!-- Title: %3 Pages: 1 -->
<svg width="1788pt" height="328pt"
 viewBox="0.00 0.00 1787.84 328.45" xmlns="http://www.w3.org/2000/svg" xmlns:xlink="http://www.w3.org/1999/xlink">
<g id="graph0" class="graph" transform="scale(1 1) rotate(0) translate(4 324.45)">
<title>%3</title>
<polygon fill="white" stroke="transparent" points="-4,4 -4,-324.45 1783.84,-324.45 1783.84,4 -4,4"/>
<!-- ssivryngblydnhlpkbwdtkrh -->
<g id="node1" class="node">
<title>ssivryngblydnhlpkbwdtkrh</title>
<ellipse fill="white" stroke="lightgreen" stroke-width="4" cx="325" cy="-289.34" rx="194.41" ry="31.23"/>
<text text-anchor="middle" x="325" y="-293.14" font-family="Times,serif" font-size="14.00">Vieworks</text>
<text text-anchor="middle" x="325" y="-278.14" font-family="Times,serif" font-size="14.00">(High resolution mounted with a macro lens)</text>
</g>
<!-- uqfxsnhfrblqprvuolrbzorw -->
<g id="node7" class="node">
<title>uqfxsnhfrblqprvuolrbzorw</title>
<polygon fill="lightgrey" stroke="black" stroke-width="2" points="488.5,-222.23 161.5,-222.23 161.5,-178.23 488.5,-178.23 488.5,-222.23"/>
<text text-anchor="middle" x="325" y="-204.03" font-family="Times,serif" font-size="14.00">OVL1 images</text>
<text text-anchor="middle" x="325" y="-189.03" font-family="Times,serif" font-size="14.00">(Reference image and images acquired during OVL1.)</text>
</g>
<!-- ssivryngblydnhlpkbwdtkrh&#45;&gt;uqfxsnhfrblqprvuolrbzorw -->
<g id="edge5" class="edge">
<title>ssivryngblydnhlpkbwdtkrh&#45;&gt;uqfxsnhfrblqprvuolrbzorw</title>
<path fill="none" stroke="black" d="M325,-257.87C325,-249.59 325,-240.62 325,-232.3"/>
<polygon fill="black" stroke="black" points="328.5,-232.23 325,-222.23 321.5,-232.23 328.5,-232.23"/>
</g>
<!-- sxziirkvsuwhjapmjublvyrr -->
<g id="node2" class="node">
<title>sxziirkvsuwhjapmjublvyrr</title>
<ellipse fill="white" stroke="lightgreen" stroke-width="4" cx="768" cy="-289.34" rx="230.53" ry="31.23"/>
<text text-anchor="middle" x="768" y="-293.14" font-family="Times,serif" font-size="14.00">Load sensor</text>
<text text-anchor="middle" x="768" y="-278.14" font-family="Times,serif" font-size="14.00">(Load sensor mounted on Instron ElectroPuls E10000)</text>
</g>
<!-- aydxhmmutqbkmucyvqilumit -->
<g id="node5" class="node">
<title>aydxhmmutqbkmucyvqilumit</title>
<polygon fill="#ffa07a" stroke="red" stroke-width="6" points="1172.5,-222.23 993.5,-222.23 993.5,-178.23 1172.5,-178.23 1172.5,-222.23"/>
<text text-anchor="middle" x="1083" y="-204.03" font-family="Times,serif" font-size="14.00">Load and SIF for OVL1</text>
<text text-anchor="middle" x="1083" y="-189.03" font-family="Times,serif" font-size="14.00">(Data for the first overload)</text>
</g>
<!-- sxziirkvsuwhjapmjublvyrr&#45;&gt;aydxhmmutqbkmucyvqilumit -->
<g id="edge2" class="edge">
<title>sxziirkvsuwhjapmjublvyrr&#45;&gt;aydxhmmutqbkmucyvqilumit</title>
<path fill="none" stroke="black" d="M866.37,-261.13C908.23,-249.56 956.61,-236.18 997.01,-225.01"/>
<polygon fill="black" stroke="black" points="998.13,-228.33 1006.84,-222.29 996.26,-221.58 998.13,-228.33"/>
</g>
<!-- xmyhkstghmhrsjjbheczwiue -->
<g id="node3" class="node">
<title>xmyhkstghmhrsjjbheczwiue</title>
<ellipse fill="white" stroke="lightgreen" stroke-width="4" cx="1398" cy="-289.34" rx="381.68" ry="31.23"/>
<text text-anchor="middle" x="1398" y="-293.14" font-family="Times,serif" font-size="14.00">SIF Extractor</text>
<text text-anchor="middle" x="1398" y="-278.14" font-family="Times,serif" font-size="14.00">(Provide for estimate of SIF and subsingular Willimas&#39; coeeficients from displacement fields)</text>
</g>
<!-- xmyhkstghmhrsjjbheczwiue&#45;&gt;aydxhmmutqbkmucyvqilumit -->
<g id="edge3" class="edge">
<title>xmyhkstghmhrsjjbheczwiue&#45;&gt;aydxhmmutqbkmucyvqilumit</title>
<path fill="none" stroke="black" d="M1293.11,-259.33C1252.86,-248.2 1207.43,-235.64 1169.13,-225.05"/>
<polygon fill="black" stroke="black" points="1169.62,-221.55 1159.05,-222.26 1167.75,-228.3 1169.62,-221.55"/>
</g>
<!-- bzcseozaegnsephtrsdystrm -->
<g id="node4" class="node">
<title>bzcseozaegnsephtrsdystrm</title>
<ellipse fill="lightblue" stroke="black" stroke-width="2" cx="325" cy="-111.11" rx="101.23" ry="31.23"/>
<text text-anchor="middle" x="325" y="-114.91" font-family="Times,serif" font-size="14.00">FE&#45;DIC</text>
<text text-anchor="middle" x="325" y="-99.91" font-family="Times,serif" font-size="14.00">(Finite element DIC)</text>
</g>
<!-- dzewumwivsxprayegvggyrvo -->
<g id="node6" class="node">
<title>dzewumwivsxprayegvggyrvo</title>
<polygon fill="#ffa07a" stroke="red" stroke-width="6" points="650,-44 0,-44 0,0 650,0 650,-44"/>
<text text-anchor="middle" x="325" y="-25.8" font-family="Times,serif" font-size="14.00">Displacement amplitude</text>
<text text-anchor="middle" x="325" y="-10.8" font-family="Times,serif" font-size="14.00">(Displacement amplitude from FE&#45;DIC using 20&#45;pixel quadrangular elements and a first neighboor median filter)</text>
</g>
<!-- bzcseozaegnsephtrsdystrm&#45;&gt;dzewumwivsxprayegvggyrvo -->
<g id="edge4" class="edge">
<title>bzcseozaegnsephtrsdystrm&#45;&gt;dzewumwivsxprayegvggyrvo</title>
<path fill="none" stroke="black" d="M325,-79.64C325,-71.37 325,-62.39 325,-54.08"/>
<polygon fill="black" stroke="black" points="328.5,-54 325,-44 321.5,-54 328.5,-54"/>
</g>
<!-- uqfxsnhfrblqprvuolrbzorw&#45;&gt;bzcseozaegnsephtrsdystrm -->
<g id="edge1" class="edge">
<title>uqfxsnhfrblqprvuolrbzorw&#45;&gt;bzcseozaegnsephtrsdystrm</title>
<path fill="none" stroke="black" d="M325,-178.14C325,-170.47 325,-161.51 325,-152.72"/>
<polygon fill="black" stroke="black" points="328.5,-152.56 325,-142.56 321.5,-152.56 328.5,-152.56"/>
</g>
</g>
</svg>
