<?xml version="1.0" encoding="UTF-8" standalone="no"?>
<!DOCTYPE svg PUBLIC "-//W3C//DTD SVG 1.1//EN"
 "http://www.w3.org/Graphics/SVG/1.1/DTD/svg11.dtd">
<!-- Generated by graphviz version 2.43.0 (0)
 -->
<!-- Title: %3 Pages: 1 -->
<svg width="1258pt" height="772pt"
 viewBox="0.00 0.00 1257.56 772.33" xmlns="http://www.w3.org/2000/svg" xmlns:xlink="http://www.w3.org/1999/xlink">
<g id="graph0" class="graph" transform="scale(1 1) rotate(0) translate(4 768.33)">
<title>%3</title>
<polygon fill="white" stroke="transparent" points="-4,4 -4,-768.33 1253.56,-768.33 1253.56,4 -4,4"/>
<!-- camera_IR -->
<g id="node1" class="node">
<title>camera_IR</title>
<ellipse fill="white" stroke="lightgreen" stroke-width="4" cx="1016.06" cy="-733.22" rx="181.04" ry="31.23"/>
<text text-anchor="middle" x="1016.06" y="-737.02" font-family="Times,serif" font-size="14.00">FILR InfraRed Camera</text>
<text text-anchor="middle" x="1016.06" y="-722.02" font-family="Times,serif" font-size="14.00">(FILR InfraRed Camera used for the test)</text>
</g>
<!-- IR_raws -->
<g id="node9" class="node">
<title>IR_raws</title>
<polygon fill="lightgrey" stroke="black" stroke-width="2" points="1249.56,-666.1 962.56,-666.1 962.56,-622.1 1249.56,-622.1 1249.56,-666.1"/>
<text text-anchor="middle" x="1106.06" y="-647.9" font-family="Times,serif" font-size="14.00">IR raws images</text>
<text text-anchor="middle" x="1106.06" y="-632.9" font-family="Times,serif" font-size="14.00">(Raw images from the FLIR InfraRed Camera)</text>
</g>
<!-- camera_IR&#45;&gt;IR_raws -->
<g id="edge11" class="edge">
<title>camera_IR&#45;&gt;IR_raws</title>
<path fill="none" stroke="black" d="M1046.78,-702.48C1056.51,-693.07 1067.22,-682.7 1076.84,-673.39"/>
<polygon fill="black" stroke="black" points="1079.52,-675.66 1084.27,-666.19 1074.65,-670.63 1079.52,-675.66"/>
</g>
<!-- calibration_tables -->
<g id="node10" class="node">
<title>calibration_tables</title>
<polygon fill="lightgrey" stroke="black" stroke-width="2" points="944.56,-666.1 727.56,-666.1 727.56,-622.1 944.56,-622.1 944.56,-666.1"/>
<text text-anchor="middle" x="836.06" y="-647.9" font-family="Times,serif" font-size="14.00">calibration tables</text>
<text text-anchor="middle" x="836.06" y="-632.9" font-family="Times,serif" font-size="14.00">(tables of Black body calibrations)</text>
</g>
<!-- camera_IR&#45;&gt;calibration_tables -->
<g id="edge12" class="edge">
<title>camera_IR&#45;&gt;calibration_tables</title>
<path fill="none" stroke="black" d="M957.12,-703.69C935.15,-693.06 910.36,-681.06 888.97,-670.71"/>
<polygon fill="black" stroke="black" points="890.24,-667.43 879.71,-666.23 887.19,-673.74 890.24,-667.43"/>
</g>
<!-- camera_visible -->
<g id="node2" class="node">
<title>camera_visible</title>
<ellipse fill="white" stroke="lightgreen" stroke-width="4" cx="577.06" cy="-733.22" rx="149.4" ry="31.23"/>
<text text-anchor="middle" x="577.06" y="-737.02" font-family="Times,serif" font-size="14.00">Ximea PCIe visible camera</text>
<text text-anchor="middle" x="577.06" y="-722.02" font-family="Times,serif" font-size="14.00">(Visible camera used ofr the test)</text>
</g>
<!-- visible_images -->
<g id="node13" class="node">
<title>visible_images</title>
<polygon fill="lightgrey" stroke="black" stroke-width="2" points="683.56,-666.1 452.56,-666.1 452.56,-622.1 683.56,-622.1 683.56,-666.1"/>
<text text-anchor="middle" x="568.06" y="-647.9" font-family="Times,serif" font-size="14.00">Visible images</text>
<text text-anchor="middle" x="568.06" y="-632.9" font-family="Times,serif" font-size="14.00">(visible images from Ximea camera)</text>
</g>
<!-- camera_visible&#45;&gt;visible_images -->
<g id="edge15" class="edge">
<title>camera_visible&#45;&gt;visible_images</title>
<path fill="none" stroke="black" d="M573.91,-701.75C573.06,-693.47 572.13,-684.49 571.27,-676.18"/>
<polygon fill="black" stroke="black" points="574.74,-675.69 570.23,-666.11 567.78,-676.41 574.74,-675.69"/>
</g>
<!-- load_cell -->
<g id="node3" class="node">
<title>load_cell</title>
<ellipse fill="white" stroke="lightgreen" stroke-width="4" cx="205.06" cy="-733.22" rx="205.12" ry="31.23"/>
<text text-anchor="middle" x="205.06" y="-737.02" font-family="Times,serif" font-size="14.00">Load cell</text>
<text text-anchor="middle" x="205.06" y="-722.02" font-family="Times,serif" font-size="14.00">(Load cell of INSTRON 8800 300KN machine)</text>
</g>
<!-- load_cell_data -->
<g id="node12" class="node">
<title>load_cell_data</title>
<polygon fill="lightgrey" stroke="black" stroke-width="2" points="279.56,-666.1 164.56,-666.1 164.56,-622.1 279.56,-622.1 279.56,-666.1"/>
<text text-anchor="middle" x="222.06" y="-647.9" font-family="Times,serif" font-size="14.00">Load cell data</text>
<text text-anchor="middle" x="222.06" y="-632.9" font-family="Times,serif" font-size="14.00">(Load cell data)</text>
</g>
<!-- load_cell&#45;&gt;load_cell_data -->
<g id="edge14" class="edge">
<title>load_cell&#45;&gt;load_cell_data</title>
<path fill="none" stroke="black" d="M211.01,-701.75C212.62,-693.47 214.37,-684.49 216,-676.18"/>
<polygon fill="black" stroke="black" points="219.48,-676.59 217.96,-666.11 212.61,-675.25 219.48,-676.59"/>
</g>
<!-- load_cell_visible_timeline -->
<g id="node4" class="node">
<title>load_cell_visible_timeline</title>
<ellipse fill="lightblue" stroke="black" stroke-width="2" cx="231.06" cy="-554.99" rx="184.61" ry="31.23"/>
<text text-anchor="middle" x="231.06" y="-558.79" font-family="Times,serif" font-size="14.00">Load cell on visible timeline</text>
<text text-anchor="middle" x="231.06" y="-543.79" font-family="Times,serif" font-size="14.00">(Load cell interpolator on visible timeline)</text>
</g>
<!-- load_cell_data_interp_visible_timeline_data -->
<g id="node14" class="node">
<title>load_cell_data_interp_visible_timeline_data</title>
<polygon fill="lightgrey" stroke="black" stroke-width="2" points="437.56,-377.55 126.56,-377.55 126.56,-333.55 437.56,-333.55 437.56,-377.55"/>
<text text-anchor="middle" x="282.06" y="-359.35" font-family="Times,serif" font-size="14.00">Load cell data interpolated on visible timeline data</text>
<text text-anchor="middle" x="282.06" y="-344.35" font-family="Times,serif" font-size="14.00">(load cell data interpolated on visible timeline data)</text>
</g>
<!-- load_cell_visible_timeline&#45;&gt;load_cell_data_interp_visible_timeline_data -->
<g id="edge16" class="edge">
<title>load_cell_visible_timeline&#45;&gt;load_cell_data_interp_visible_timeline_data</title>
<path fill="none" stroke="black" d="M238.92,-523.57C248.47,-486.59 264.5,-424.54 274.1,-387.37"/>
<polygon fill="black" stroke="black" points="277.51,-388.15 276.63,-377.59 270.74,-386.4 277.51,-388.15"/>
</g>
<!-- calibration_IR -->
<g id="node5" class="node">
<title>calibration_IR</title>
<ellipse fill="lightblue" stroke="black" stroke-width="2" cx="862.06" cy="-554.99" rx="141.34" ry="31.23"/>
<text text-anchor="middle" x="862.06" y="-558.79" font-family="Times,serif" font-size="14.00">Infra Red calibration process</text>
<text text-anchor="middle" x="862.06" y="-543.79" font-family="Times,serif" font-size="14.00">(Conversion from DL to T(°C))</text>
</g>
<!-- temperature_fields_eulerian -->
<g id="node15" class="node">
<title>temperature_fields_eulerian</title>
<polygon fill="lightgrey" stroke="black" stroke-width="2" points="901.06,-487.88 711.06,-487.88 711.06,-443.88 901.06,-443.88 901.06,-487.88"/>
<text text-anchor="middle" x="806.06" y="-469.68" font-family="Times,serif" font-size="14.00">Eulerian Temperature fields</text>
<text text-anchor="middle" x="806.06" y="-454.68" font-family="Times,serif" font-size="14.00">(Eulerian Temperature fields)</text>
</g>
<!-- calibration_IR&#45;&gt;temperature_fields_eulerian -->
<g id="edge17" class="edge">
<title>calibration_IR&#45;&gt;temperature_fields_eulerian</title>
<path fill="none" stroke="black" d="M842.79,-524.01C837.09,-515.15 830.86,-505.46 825.18,-496.62"/>
<polygon fill="black" stroke="black" points="828.07,-494.64 819.72,-488.12 822.18,-498.42 828.07,-494.64"/>
</g>
<!-- dic -->
<g id="node6" class="node">
<title>dic</title>
<ellipse fill="lightblue" stroke="black" stroke-width="2" cx="568.06" cy="-554.99" rx="134.2" ry="31.23"/>
<text text-anchor="middle" x="568.06" y="-558.79" font-family="Times,serif" font-size="14.00">DIC Analysis</text>
<text text-anchor="middle" x="568.06" y="-543.79" font-family="Times,serif" font-size="14.00">(Displacement measurement)</text>
</g>
<!-- dic_fields -->
<g id="node11" class="node">
<title>dic_fields</title>
<polygon fill="lightgrey" stroke="black" stroke-width="2" points="636.56,-487.88 499.56,-487.88 499.56,-443.88 636.56,-443.88 636.56,-487.88"/>
<text text-anchor="middle" x="568.06" y="-469.68" font-family="Times,serif" font-size="14.00">DIC fields</text>
<text text-anchor="middle" x="568.06" y="-454.68" font-family="Times,serif" font-size="14.00">(Visible DIC fields)</text>
</g>
<!-- dic&#45;&gt;dic_fields -->
<g id="edge13" class="edge">
<title>dic&#45;&gt;dic_fields</title>
<path fill="none" stroke="black" d="M568.06,-523.52C568.06,-515.24 568.06,-506.27 568.06,-497.95"/>
<polygon fill="black" stroke="black" points="571.56,-497.88 568.06,-487.88 564.56,-497.88 571.56,-497.88"/>
</g>
<!-- lagrangian_thermography -->
<g id="node7" class="node">
<title>lagrangian_thermography</title>
<ellipse fill="lightblue" stroke="black" stroke-width="2" cx="774.06" cy="-355.55" rx="270.64" ry="52.15"/>
<text text-anchor="middle" x="774.06" y="-374.35" font-family="Times,serif" font-size="14.00">Lagrangian thermography</text>
<text text-anchor="middle" x="774.06" y="-359.35" font-family="Times,serif" font-size="14.00">(Lagrangian thermography computation from :</text>
<text text-anchor="middle" x="774.06" y="-344.35" font-family="Times,serif" font-size="14.00"> &#160;&#160;&#160;&#45; rescaling IR images and following on visibe reference frame</text>
<text text-anchor="middle" x="774.06" y="-329.35" font-family="Times,serif" font-size="14.00"> &#160;&#160;&#160;&#160;&#45; DIC field registration to be lagrangian)</text>
</g>
<!-- temperature_fields_lagrangian -->
<g id="node16" class="node">
<title>temperature_fields_lagrangian</title>
<polygon fill="lightgrey" stroke="black" stroke-width="2" points="930.56,-267.23 541.56,-267.23 541.56,-193.23 930.56,-193.23 930.56,-267.23"/>
<text text-anchor="middle" x="736.06" y="-249.03" font-family="Times,serif" font-size="14.00">Lagrangian Temperature Field</text>
<text text-anchor="middle" x="736.06" y="-234.03" font-family="Times,serif" font-size="14.00">(Eulerian thermography registered</text>
<text text-anchor="middle" x="736.06" y="-219.03" font-family="Times,serif" font-size="14.00">after rescaling IR images and following on visibe reference frame</text>
<text text-anchor="middle" x="736.06" y="-204.03" font-family="Times,serif" font-size="14.00">and with the DIC field to be lagrangian)</text>
</g>
<!-- lagrangian_thermography&#45;&gt;temperature_fields_lagrangian -->
<g id="edge18" class="edge">
<title>lagrangian_thermography&#45;&gt;temperature_fields_lagrangian</title>
<path fill="none" stroke="black" d="M758.17,-302.96C755.51,-294.33 752.76,-285.43 750.15,-276.95"/>
<polygon fill="black" stroke="black" points="753.45,-275.77 747.16,-267.24 746.76,-277.83 753.45,-275.77"/>
</g>
<!-- energy_balance -->
<g id="node8" class="node">
<title>energy_balance</title>
<ellipse fill="lightblue" stroke="black" stroke-width="2" cx="475.06" cy="-126.11" rx="282.69" ry="31.23"/>
<text text-anchor="middle" x="475.06" y="-129.91" font-family="Times,serif" font-size="14.00">Energy balance</text>
<text text-anchor="middle" x="475.06" y="-114.91" font-family="Times,serif" font-size="14.00">(Von Mises strains, Thermal flux, Taylor Quiney map computation)</text>
</g>
<!-- energy_balance_fields -->
<g id="node17" class="node">
<title>energy_balance_fields</title>
<polygon fill="#ffa07a" stroke="red" stroke-width="6" points="579.56,-59 370.56,-59 370.56,0 579.56,0 579.56,-59"/>
<text text-anchor="middle" x="475.06" y="-40.8" font-family="Times,serif" font-size="14.00">Final results :</text>
<text text-anchor="middle" x="475.06" y="-25.8" font-family="Times,serif" font-size="14.00">Lagrangian energy balance fields</text>
<text text-anchor="middle" x="475.06" y="-10.8" font-family="Times,serif" font-size="14.00">(Energy balance fields)</text>
</g>
<!-- energy_balance&#45;&gt;energy_balance_fields -->
<g id="edge19" class="edge">
<title>energy_balance&#45;&gt;energy_balance_fields</title>
<path fill="none" stroke="black" d="M475.06,-94.92C475.06,-86.77 475.06,-77.83 475.06,-69.28"/>
<polygon fill="black" stroke="black" points="478.56,-69.12 475.06,-59.12 471.56,-69.12 478.56,-69.12"/>
</g>
<!-- IR_raws&#45;&gt;calibration_IR -->
<g id="edge3" class="edge">
<title>IR_raws&#45;&gt;calibration_IR</title>
<path fill="none" stroke="black" d="M1047,-622.02C1016.19,-611.02 978.01,-597.38 944.35,-585.37"/>
<polygon fill="black" stroke="black" points="945.12,-581.93 934.53,-581.86 942.77,-588.52 945.12,-581.93"/>
</g>
<!-- calibration_tables&#45;&gt;calibration_IR -->
<g id="edge4" class="edge">
<title>calibration_tables&#45;&gt;calibration_IR</title>
<path fill="none" stroke="black" d="M842.35,-622.02C844.72,-614.1 847.49,-604.83 850.19,-595.77"/>
<polygon fill="black" stroke="black" points="853.57,-596.69 853.07,-586.1 846.86,-594.68 853.57,-596.69"/>
</g>
<!-- dic_fields&#45;&gt;lagrangian_thermography -->
<g id="edge6" class="edge">
<title>dic_fields&#45;&gt;lagrangian_thermography</title>
<path fill="none" stroke="black" d="M608.27,-443.73C626.88,-433.95 649.9,-421.84 672.81,-409.79"/>
<polygon fill="black" stroke="black" points="674.7,-412.76 681.92,-405 671.44,-406.56 674.7,-412.76"/>
</g>
<!-- dic_fields&#45;&gt;energy_balance -->
<g id="edge8" class="edge">
<title>dic_fields&#45;&gt;energy_balance</title>
<path fill="none" stroke="black" d="M528.41,-443.65C515.19,-434.48 501.86,-422.46 494.06,-407.88 452.97,-331.02 459.92,-224.94 467.91,-167.68"/>
<polygon fill="black" stroke="black" points="471.4,-167.98 469.4,-157.58 464.48,-166.96 471.4,-167.98"/>
</g>
<!-- load_cell_data&#45;&gt;load_cell_visible_timeline -->
<g id="edge1" class="edge">
<title>load_cell_data&#45;&gt;load_cell_visible_timeline</title>
<path fill="none" stroke="black" d="M224.24,-622.02C225.05,-614.19 226,-605.02 226.92,-596.06"/>
<polygon fill="black" stroke="black" points="230.4,-596.41 227.95,-586.1 223.44,-595.69 230.4,-596.41"/>
</g>
<!-- visible_images&#45;&gt;load_cell_visible_timeline -->
<g id="edge2" class="edge">
<title>visible_images&#45;&gt;load_cell_visible_timeline</title>
<path fill="none" stroke="black" d="M486.48,-622.02C442.2,-610.57 386.88,-596.27 339.06,-583.91"/>
<polygon fill="black" stroke="black" points="339.85,-580.5 329.29,-581.38 338.1,-587.27 339.85,-580.5"/>
</g>
<!-- visible_images&#45;&gt;dic -->
<g id="edge5" class="edge">
<title>visible_images&#45;&gt;dic</title>
<path fill="none" stroke="black" d="M568.06,-622.02C568.06,-614.34 568.06,-605.39 568.06,-596.6"/>
<polygon fill="black" stroke="black" points="571.56,-596.43 568.06,-586.43 564.56,-596.43 571.56,-596.43"/>
</g>
<!-- load_cell_data_interp_visible_timeline_data&#45;&gt;energy_balance -->
<g id="edge10" class="edge">
<title>load_cell_data_interp_visible_timeline_data&#45;&gt;energy_balance</title>
<path fill="none" stroke="black" d="M300.22,-333.15C332.93,-294.61 402.15,-213.04 443,-164.9"/>
<polygon fill="black" stroke="black" points="445.74,-167.07 449.54,-157.18 440.41,-162.54 445.74,-167.07"/>
</g>
<!-- temperature_fields_eulerian&#45;&gt;lagrangian_thermography -->
<g id="edge7" class="edge">
<title>temperature_fields_eulerian&#45;&gt;lagrangian_thermography</title>
<path fill="none" stroke="black" d="M799.82,-443.73C797.57,-436.15 794.92,-427.16 792.18,-417.9"/>
<polygon fill="black" stroke="black" points="795.5,-416.78 789.31,-408.18 788.79,-418.76 795.5,-416.78"/>
</g>
<!-- temperature_fields_lagrangian&#45;&gt;energy_balance -->
<g id="edge9" class="edge">
<title>temperature_fields_lagrangian&#45;&gt;energy_balance</title>
<path fill="none" stroke="black" d="M644.04,-193.22C616.34,-182.39 586.1,-170.55 558.95,-159.93"/>
<polygon fill="black" stroke="black" points="560.08,-156.62 549.49,-156.23 557.53,-163.14 560.08,-156.62"/>
</g>
</g>
</svg>
